<svg width="24" height="24" viewBox="0 0 24 24" fill="none" xmlns="http://www.w3.org/2000/svg">
<path d="M18.0934 8.42909H16.182V8.07476C16.182 5.82478 14.3093 4 12.0002 4C9.69113 4 7.81841 5.82478 7.81841 8.07476V8.42909H5.9047C5.50243 8.42909 5.17743 8.74577 5.17743 9.13774L4 19.2913C4 19.6833 4.325 20 4.72727 20H19.2727C19.675 20 20 19.6833 20 19.2913L18.8206 9.13774C18.8206 8.74577 18.4956 8.42909 18.0934 8.42909ZM14.5457 8.42909H9.45477V8.07476C9.45477 6.70396 10.5934 5.59447 12.0002 5.59447C13.407 5.59447 14.5457 6.70396 14.5457 8.07476V8.42909Z" fill="black"/>
</svg>
