<svg width="103" height="26" viewBox="0 0 103 26" fill="none" xmlns="http://www.w3.org/2000/svg">
<path d="M103 25.2957H99.3205V6.11506L90.4575 18.56L81.5945 6.11506V25.299H78.249V1.05747L82.1164 1.04102C82.1164 1.04102 86.8883 8.33619 89.4785 11.4688C89.8091 11.8703 90.2014 12.5119 90.7817 12.5119L98.7888 1.04102L102.993 1.06405V25.2957H103Z" fill="black"/>
<path d="M25.7525 25.2912L31.7725 16.5482C24.7605 16.6042 20.2415 9.1609 24.7508 3.25434C30.7481 -4.60352 44.0069 3.05033 38.7358 12.6193C36.486 16.7029 32.5213 20.7404 30.265 24.9589L25.7525 25.2945V25.2912ZM30.0122 3.50114C25.1625 4.40275 25.1074 12.5271 30.6832 13.4353C38.2138 14.6627 38.7422 1.8756 30.0122 3.50114Z" fill="black"/>
<path d="M69.8924 3.42644L67.7204 6.10167C61.5351 0.172079 51.155 4.19314 51.1485 13.0118C51.142 20.3366 58.6953 24.871 65.2177 21.7647C66.0249 21.3797 66.9326 20.2281 67.7301 20.2511C68.3201 20.2675 70.1841 22.1695 69.8924 22.594C64.738 26.2761 59.6354 27.3126 53.9526 24.0023C44.4445 18.4643 46.3021 4.04178 56.666 0.70844C61.561 -0.864448 65.892 0.474811 69.8891 3.42315L69.8924 3.42644Z" fill="black"/>
<path d="M5.01824 22.2681H15.2168C16.0921 22.9854 15.6253 24.2819 15.7193 25.2954H0.00324176L0.175055 21.9358C2.21088 19.2079 11.5471 11.3796 12.0204 8.61886C13.1453 2.07064 3.72478 1.36646 3.31308 7.76002L0 7.79622C0.00972528 -2.4144 15.4891 -2.30581 15.6836 7.6613C15.7744 12.4063 8.36698 17.51 5.51747 21.2546C5.25813 21.5935 4.87236 21.6791 5.01824 22.2648V22.2681Z" fill="black"/>
</svg>
